PathFileType	4	(X/Y/Z)	OpenSim_Sub10_EMGStiffKnee_Gyro.trc
DataRate	CameraRate	NumFrames	NumMarkers	Units	OrigDataRate	OrigDataStartFrame	OrigNumFrames
100	100	20	8	m	100	2093	8371
Frame#	Time	torso_imu_offset_imu	pelvis_imu_offset_imu	tibia_r_imu_offset_imu	femur_r_imu_offset_imu	tibia_l_imu_offset_imu	femur_l_imu_offset_imu	toes_r_imu_offset_imu	toes_l_imu_offset_imu
				X1	Y1	Z1	X2	Y2	Z2	X3	Y3	Z3	X4	Y4	Z4	X5	Y5	Z5	X6	Y6	Z6	X7	Y7	Z7	X8		Y8	Z8	

2093	20.92000000	0.52414600	-0.27190600	0.20189200	0.42347200	0.16038400	0.11182700	0.14346000	-0.14392200	-0.49458700	1.21247900	-0.09182900	-0.86703200	0.39150900	0.42887900	-2.19775400	0.14621100	0.37565500	-1.19078100	0.13728700	-0.01760200	-0.12204300	-0.03023800	1.90809100	-0.77720100
2094	20.93000000	0.53472200	-0.25988300	0.21579800	0.39575500	0.12215200	0.09965800	0.17097500	-0.12984600	-0.47013100	1.31365300	-0.11376500	-0.91863400	0.22096400	0.43834300	-2.20088000	0.17746500	0.36392700	-1.20990700	0.10881800	-0.03301800	-0.12677300	-0.04628500	1.89224100	-0.83531600
2095	20.94000000	0.53300500	-0.23250600	0.21893400	0.37121200	0.08665200	0.09148700	0.16099500	-0.13733300	-0.46764900	1.29907300	-0.09524200	-0.95511200	0.03237700	0.45037500	-2.20393200	0.16084500	0.33671200	-1.23890300	0.13320600	-0.04462700	-0.15365100	-0.02227300	1.84266600	-0.84815700
2096	20.95000000	0.52582400	-0.20567100	0.21742400	0.35211300	0.08053000	0.08061300	0.10728800	-0.12827800	-0.47103400	1.21325900	-0.07391500	-0.97370500	-0.12645600	0.45455400	-2.21439700	0.07628200	0.29811400	-1.20982500	0.16737800	-0.05245700	-0.17732800	0.01453100	1.79604000	-0.82695100
2097	20.96000000	0.52228200	-0.16260400	0.21401200	0.31919900	0.09937700	0.06669700	0.05156400	-0.11013100	-0.46262200	1.10357200	-0.08986700	-0.95420100	-0.24395900	0.46471200	-2.21056100	-0.02246900	0.23077900	-1.19303500	0.13012000	-0.06136600	-0.19532100	0.03637600	1.77187400	-0.77935600
2098	20.97000000	0.52140700	-0.12671700	0.20029700	0.29935900	0.12994200	0.05545300	0.00498700	-0.10524200	-0.47418300	0.95706200	-0.12590000	-0.92422200	-0.24506000	0.47248900	-2.19887100	-0.10568200	0.20516200	-1.17442200	0.13696100	-0.08948900	-0.23113400	0.02140800	1.75675400	-0.72302100
2099	20.98000000	0.50227700	-0.10130700	0.17584100	0.28395000	0.14591600	0.04397300	-0.03817100	-0.08631100	-0.47957100	0.77116000	-0.16024300	-0.89144600	-0.21214700	0.47370000	-2.17495100	-0.19587600	0.17234300	-1.14507700	0.11506900	-0.12907000	-0.26952400	0.06761900	1.72398000	-0.66663500
2100	20.99000000	0.43114200	-0.08649400	0.15845500	0.24415900	0.14848900	0.02864700	-0.16236700	-0.10750800	-0.47548400	0.57437400	-0.17188700	-0.86640000	-0.12324300	0.45798800	-2.14980200	-0.24996500	0.15915200	-1.10701800	0.16756900	-0.14342800	-0.30289300	0.13329200	1.68958600	-0.61845500
2101	21.00000000	0.37844300	-0.08209800	0.13857800	0.19170300	0.15855100	0.01565300	-0.26510700	-0.08917300	-0.45406100	0.42469400	-0.15425300	-0.83948100	0.05213800	0.44490300	-2.11234300	-0.28020900	0.13745700	-1.05937800	0.14348400	-0.18646200	-0.33801600	0.20615300	1.65434800	-0.57387200
2102	21.01000000	0.39004600	-0.06086200	0.11421000	0.13137200	0.17460000	0.00064900	-0.29330800	-0.06676900	-0.48294100	0.30607200	-0.11364200	-0.78692100	0.24764800	0.42703900	-2.06225500	-0.28699500	0.12359200	-0.99372800	0.10453100	-0.22924200	-0.35068100	0.26146900	1.59538800	-0.53934900
2103	21.02000000	0.40117500	-0.03586100	0.08079400	0.07214400	0.17276000	-0.01508200	-0.33516900	-0.07531800	-0.56206700	0.17900500	-0.05647900	-0.71883500	0.40784800	0.36828900	-2.01659700	-0.27557000	0.12203000	-0.91231600	0.10915800	-0.26218400	-0.35645700	0.36481500	1.52696700	-0.51819000
2104	21.03000000	0.36576600	-0.03985900	0.03999400	0.00376400	0.13147200	-0.02464400	-0.37726500	-0.03975600	-0.61850200	0.03253800	-0.01654100	-0.65692900	0.56185200	0.27102100	-1.98351500	-0.24834800	0.11175600	-0.82340600	0.07910800	-0.31488800	-0.36944000	0.32702100	1.52070200	-0.47501200
2105	21.04000000	0.31001200	-0.04628300	-0.01562200	-0.07296700	0.07692200	-0.04126600	-0.35820300	-0.03596400	-0.66351500	-0.12030400	-0.01157000	-0.59706600	0.66725000	0.19564000	-1.93184600	-0.23351200	0.07905500	-0.74474400	0.01434900	-0.38746800	-0.38951600	0.20319200	1.55582200	-0.43331500
2106	21.05000000	0.25980700	-0.04400800	-0.06769600	-0.15290800	0.02285100	-0.05170400	-0.34115600	-0.05895900	-0.68707600	-0.26859200	-0.02748500	-0.53085400	0.62995300	0.14825000	-1.85501000	-0.18295000	0.02543600	-0.68198000	0.08559200	-0.40840500	-0.42814400	0.15512900	1.56848000	-0.40454800
2107	21.06000000	0.20469500	-0.03728700	-0.11496400	-0.22460300	-0.02606800	-0.06538700	-0.34180100	-0.06716000	-0.71983400	-0.39630700	-0.03135100	-0.47078000	0.56415900	0.12354700	-1.75663300	-0.21708800	-0.02005800	-0.62779000	0.05943200	-0.48382900	-0.45705900	0.19174800	1.53723700	-0.39061700
2108	21.07000000	0.14730400	-0.02299000	-0.14535500	-0.26291800	-0.08597500	-0.07055900	-0.37616000	-0.04850600	-0.75973200	-0.49801700	-0.01578000	-0.42309900	0.42699000	0.07274900	-1.63560900	-0.27285100	-0.05735100	-0.57150900	0.05610100	-0.55342800	-0.47881400	0.19638200	1.46378700	-0.37950800
2109	21.08000000	0.10254700	-0.01305400	-0.16719400	-0.29809400	-0.14946100	-0.06662200	-0.43234400	-0.05030000	-0.81091000	-0.56487700	0.01349300	-0.39776200	0.20591100	0.02283300	-1.50727300	-0.34621100	-0.10292700	-0.50313900	0.21433200	-0.62290000	-0.47196100	0.14679200	1.35037200	-0.36451700
2110	21.09000000	0.04948400	-0.00115900	-0.18262400	-0.33766400	-0.20129700	-0.06166100	-0.46826600	-0.05590100	-0.85935700	-0.59094700	0.02891500	-0.38459500	-0.04298100	-0.01119600	-1.37065300	-0.44229100	-0.15425200	-0.42700900	0.11138000	-0.70263100	-0.40559500	0.10361900	1.20032600	-0.38505200
2111	21.10000000	-0.01000500	0.01943000	-0.19201600	-0.37015900	-0.23108600	-0.05724100	-0.53598900	-0.03625200	-0.90346900	-0.60212300	0.04024700	-0.37996700	-0.28148900	-0.04796700	-1.22141500	-0.59880800	-0.20970800	-0.37364200	-0.14620000	-0.86009300	-0.37681500	0.12223600	0.99707600	-0.44135500
2112	21.11000000	-0.06271000	0.02081000	-0.22617100	-0.38515400	-0.26718000	-0.04600100	-0.56717500	-0.01633000	-0.94600300	-0.61884300	0.05805100	-0.36979500	-0.49046700	-0.07687000	-1.04524200	-0.75656100	-0.26299100	-0.32180600	0.13769500	-0.88054500	-0.32797300	0.13532300	0.75072500	-0.50353600
